<svg width="765" height="382" xmlns="http://www.w3.org/2000/svg" preserveAspectRatio="xMidYMid meet">

 <g>
  <title>background</title>
  <rect fill="none" id="canvas_background" height="602" width="802" y="-1" x="-1"/>
 </g>
 <g>
  <title>Layer 1</title>
  <g id="svg_1" fill="#000000" transform="translate(0,382) scale(0.10000000149011612,-0.10000000149011612) ">
   <path fill="#a52a2a" id="svg_2" d="m5590,2793c-47,-24 -116,-50 -153,-58c-38,-7 -70,-15 -72,-17c-1,-2 3,-37 10,-78c16,-88 35,-458 35,-663c0,-189 -17,-476 -35,-603c-8,-56 -15,-107 -15,-113c0,-6 23,4 50,23c60,41 147,75 212,83c27,3 48,11 48,17c0,6 -7,47 -16,91c-12,62 -17,176 -21,510c-5,426 2,571 36,795c5,30 8,55 7,56c0,0 -39,-19 -86,-43z"/>
   <path fill="#a52a2a" id="svg_3" d="m1130,2791c-100,-23 -249,-80 -259,-100c-13,-23 -84,-311 -79,-316c2,-3 48,24 102,59c218,144 440,175 618,85c74,-37 118,-82 156,-158c58,-117 67,-255 23,-373c-61,-160 -276,-234 -476,-165l-40,14l1,214c1,164 6,242 22,334c11,66 19,121 18,123c-2,1 -23,-9 -47,-22c-62,-35 -165,-72 -222,-80c-39,-6 -47,-11 -43,-23c13,-33 36,-274 42,-433c7,-174 -6,-414 -32,-584c-8,-54 -12,-101 -10,-104c3,-2 18,5 35,17c58,42 157,81 219,87c34,4 62,8 62,9c0,1 -7,22 -15,45c-8,24 -18,95 -22,158l-6,115l24,-6c72,-18 183,-29 251,-24l76,5l25,-57c14,-31 47,-120 72,-198l46,-141l83,39c49,23 115,44 158,51l76,13l-69,85c-37,47 -95,130 -128,184l-60,99l68,72c104,110 151,228 151,380c0,102 -19,178 -71,282c-124,248 -446,383 -749,314z"/>
   <path fill="#a52a2a" id="svg_4" d="m2407,2354c-139,-94 -184,-142 -238,-258c-47,-101 -63,-194 -50,-299c20,-154 69,-255 172,-353c91,-85 256,-172 304,-160c27,7 214,126 272,173c45,37 103,115 103,139c0,13 -188,90 -197,81c-3,-3 0,-37 7,-76c8,-49 8,-75 1,-89c-10,-19 -12,-19 -98,5c-191,53 -288,121 -349,246c-18,38 -36,93 -39,122c-8,63 8,170 42,278c28,90 30,91 139,53c155,-53 290,-141 312,-204c29,-85 -83,-196 -269,-267c-58,-23 -69,-30 -69,-50c0,-13 4,-27 10,-30c5,-3 47,-1 92,5c193,26 349,115 410,234c16,30 22,59 22,111c0,152 -95,266 -309,371c-60,30 -117,54 -125,54c-9,0 -73,-39 -143,-86z"/>
   <path fill="#a52a2a" id="svg_5" d="m3513,2412c-23,-15 -71,-45 -105,-66c-144,-89 -202,-158 -242,-286c-50,-159 -40,-309 30,-459c58,-124 205,-248 358,-302l58,-20l99,67c55,36 103,63 106,60c18,-18 -35,-229 -68,-271c-20,-25 -26,-26 -68,-20c-70,10 -120,37 -189,100l-64,58l-109,-53c-60,-30 -109,-59 -109,-64c0,-16 140,-149 185,-177c42,-27 122,-59 144,-59c20,0 229,135 290,187c70,60 165,189 208,281c33,71 33,73 24,150c-5,42 -13,183 -17,312c-8,274 -2,257 -124,374c-92,88 -206,165 -286,195c-67,26 -69,26 -121,-7zm-26,-211c183,-60 271,-119 318,-214c25,-53 25,-54 23,-282l-3,-230l-25,3c-46,6 -205,59 -264,88c-148,72 -226,203 -226,379c0,118 45,285 77,285c6,0 51,-13 100,-29z"/>
   <path fill="#a52a2a" id="svg_6" d="m4535,2370c-60,-39 -134,-90 -162,-115c-54,-47 -115,-136 -98,-142c6,-2 53,-21 105,-42c52,-21 96,-37 98,-36c2,2 -1,29 -7,61c-17,91 -15,124 9,124c34,0 169,-40 236,-70c84,-38 168,-119 185,-180c13,-48 14,-326 1,-430c-9,-69 -19,-71 -136,-31c-116,40 -177,75 -242,137c-46,45 -54,58 -54,89c0,48 19,82 75,133c42,40 212,132 242,132c15,0 17,28 4,49c-10,16 -113,9 -197,-13c-150,-40 -285,-143 -319,-245c-61,-184 71,-364 352,-481l75,-32l84,56c46,31 87,56 90,56c4,0 4,-31 1,-70l-6,-69l40,28c51,38 154,78 218,87c56,7 57,10 41,79c-10,47 -27,227 -36,375c-12,220 -52,328 -161,438c-38,38 -96,85 -129,104c-61,36 -165,79 -187,77c-7,0 -61,-31 -122,-69z"/>
   <path fill="#a52a2a" id="svg_7" d="m6163,2362c-168,-111 -231,-191 -282,-356c-49,-159 -7,-368 101,-504c69,-86 209,-181 315,-212l42,-13l118,73c129,79 213,153 244,213c11,22 19,40 17,42c-7,7 -183,75 -194,75c-8,0 -9,-12 -3,-42c9,-50 12,-132 3,-140c-9,-9 -185,42 -252,74c-132,63 -222,193 -230,336c-4,81 21,218 55,295c20,45 35,47 135,11c209,-76 325,-174 304,-257c-17,-67 -121,-152 -248,-202c-92,-36 -96,-40 -90,-70c4,-25 6,-26 66,-19c130,13 221,43 312,100c224,142 206,390 -41,557c-57,39 -217,117 -242,117c-6,0 -65,-35 -130,-78z"/>
  </g>
 </g>
</svg>